<svg xmlns="http://www.w3.org/2000/svg" xmlns:xlink="http://www.w3.org/1999/xlink" width="206" zoomAndPan="magnify" viewBox="0 0 154.5 30.000001" height="40" preserveAspectRatio="xMidYMid meet" version="1.0"><defs><g/><clipPath id="2decd15741"><path d="M 2.25 0 L 151.765625 0 L 151.765625 29.03125 L 2.25 29.03125 Z M 2.25 0 " clip-rule="nonzero"/></clipPath></defs><g clip-path="url(#2decd15741)"><path fill="#ffffff" d="M 2.25 0 L 151.765625 0 L 151.765625 29.03125 L 2.25 29.03125 Z M 2.25 0 " fill-opacity="1" fill-rule="nonzero"/><path fill="#ffffff" d="M 2.25 0 L 151.765625 0 L 151.765625 29.03125 L 2.25 29.03125 Z M 2.25 0 " fill-opacity="1" fill-rule="nonzero"/></g><g fill="#ff00ff" fill-opacity="1"><g transform="translate(41.262296, 21.836314)"><g><path d="M 13.328125 -12.09375 C 13.328125 -10.664062 12.835938 -9.484375 11.859375 -8.546875 C 10.890625 -7.609375 9.40625 -7.140625 7.40625 -7.140625 L 4.125 -7.140625 L 4.125 0 L 1.890625 0 L 1.890625 -17.09375 L 7.40625 -17.09375 C 9.332031 -17.09375 10.800781 -16.625 11.8125 -15.6875 C 12.820312 -14.757812 13.328125 -13.5625 13.328125 -12.09375 Z M 7.40625 -8.984375 C 8.644531 -8.984375 9.5625 -9.25 10.15625 -9.78125 C 10.75 -10.320312 11.046875 -11.09375 11.046875 -12.09375 C 11.046875 -14.207031 9.832031 -15.265625 7.40625 -15.265625 L 4.125 -15.265625 L 4.125 -8.984375 Z M 7.40625 -8.984375 "/></g></g></g><g fill="#ff00ff" fill-opacity="1"><g transform="translate(55.463928, 21.836314)"><g><path d="M 3.046875 -15.625 C 2.617188 -15.625 2.253906 -15.769531 1.953125 -16.0625 C 1.660156 -16.363281 1.515625 -16.722656 1.515625 -17.140625 C 1.515625 -17.566406 1.660156 -17.925781 1.953125 -18.21875 C 2.253906 -18.519531 2.617188 -18.671875 3.046875 -18.671875 C 3.453125 -18.671875 3.796875 -18.519531 4.078125 -18.21875 C 4.367188 -17.925781 4.515625 -17.566406 4.515625 -17.140625 C 4.515625 -16.722656 4.367188 -16.363281 4.078125 -16.0625 C 3.796875 -15.769531 3.453125 -15.625 3.046875 -15.625 Z M 4.125 -13.4375 L 4.125 0 L 1.890625 0 L 1.890625 -13.4375 Z M 4.125 -13.4375 "/></g></g></g><g fill="#ff00ff" fill-opacity="1"><g transform="translate(61.497785, 21.836314)"><g><path d="M 8.90625 0 L 5.71875 -5 L 2.65625 0 L 0.3125 0 L 4.65625 -6.671875 L 0.3125 -13.4375 L 2.84375 -13.4375 L 6.03125 -8.46875 L 9.078125 -13.4375 L 11.40625 -13.4375 L 7.09375 -6.796875 L 11.4375 0 Z M 8.90625 0 "/></g></g></g><g fill="#ff00ff" fill-opacity="1"><g transform="translate(73.246631, 21.836314)"><g><path d="M 14.15625 -7.234375 C 14.15625 -6.804688 14.128906 -6.359375 14.078125 -5.890625 L 3.34375 -5.890625 C 3.414062 -4.566406 3.863281 -3.53125 4.6875 -2.78125 C 5.519531 -2.039062 6.523438 -1.671875 7.703125 -1.671875 C 8.671875 -1.671875 9.476562 -1.894531 10.125 -2.34375 C 10.769531 -2.789062 11.222656 -3.390625 11.484375 -4.140625 L 13.890625 -4.140625 C 13.523438 -2.847656 12.800781 -1.796875 11.71875 -0.984375 C 10.644531 -0.179688 9.304688 0.21875 7.703125 0.21875 C 6.429688 0.21875 5.289062 -0.0664062 4.28125 -0.640625 C 3.269531 -1.210938 2.476562 -2.023438 1.90625 -3.078125 C 1.34375 -4.128906 1.0625 -5.351562 1.0625 -6.75 C 1.0625 -8.132812 1.335938 -9.347656 1.890625 -10.390625 C 2.441406 -11.441406 3.21875 -12.25 4.21875 -12.8125 C 5.226562 -13.375 6.390625 -13.65625 7.703125 -13.65625 C 8.972656 -13.65625 10.097656 -13.378906 11.078125 -12.828125 C 12.066406 -12.273438 12.828125 -11.507812 13.359375 -10.53125 C 13.890625 -9.5625 14.15625 -8.460938 14.15625 -7.234375 Z M 11.84375 -7.703125 C 11.84375 -8.554688 11.65625 -9.285156 11.28125 -9.890625 C 10.90625 -10.503906 10.394531 -10.972656 9.75 -11.296875 C 9.101562 -11.617188 8.390625 -11.78125 7.609375 -11.78125 C 6.472656 -11.78125 5.507812 -11.414062 4.71875 -10.6875 C 3.925781 -9.96875 3.472656 -8.972656 3.359375 -7.703125 Z M 11.84375 -7.703125 "/></g></g></g><g fill="#ff00ff" fill-opacity="1"><g transform="translate(88.453906, 21.836314)"><g><path d="M 4.125 -18.15625 L 4.125 0 L 1.890625 0 L 1.890625 -18.15625 Z M 4.125 -18.15625 "/></g></g></g><g fill="#ff00ff" fill-opacity="1"><g transform="translate(94.487763, 21.836314)"><g><path d="M 3.046875 -15.625 C 2.617188 -15.625 2.253906 -15.769531 1.953125 -16.0625 C 1.660156 -16.363281 1.515625 -16.722656 1.515625 -17.140625 C 1.515625 -17.566406 1.660156 -17.925781 1.953125 -18.21875 C 2.253906 -18.519531 2.617188 -18.671875 3.046875 -18.671875 C 3.453125 -18.671875 3.796875 -18.519531 4.078125 -18.21875 C 4.367188 -17.925781 4.515625 -17.566406 4.515625 -17.140625 C 4.515625 -16.722656 4.367188 -16.363281 4.078125 -16.0625 C 3.796875 -15.769531 3.453125 -15.625 3.046875 -15.625 Z M 4.125 -13.4375 L 4.125 0 L 1.890625 0 L 1.890625 -13.4375 Z M 4.125 -13.4375 "/></g></g></g><g fill="#ff00ff" fill-opacity="1"><g transform="translate(100.521621, 21.836314)"><g><path d="M 3.5625 -1.84375 L 10.15625 -1.84375 L 10.15625 0 L 1 0 L 1 -1.84375 L 7.53125 -11.625 L 1.0625 -11.625 L 1.0625 -13.4375 L 10.109375 -13.4375 L 10.109375 -11.625 Z M 3.5625 -1.84375 "/></g></g></g><g fill="#ff00ff" fill-opacity="1"><g transform="translate(111.6818, 21.836314)"><g><path d="M 14.15625 -7.234375 C 14.15625 -6.804688 14.128906 -6.359375 14.078125 -5.890625 L 3.34375 -5.890625 C 3.414062 -4.566406 3.863281 -3.53125 4.6875 -2.78125 C 5.519531 -2.039062 6.523438 -1.671875 7.703125 -1.671875 C 8.671875 -1.671875 9.476562 -1.894531 10.125 -2.34375 C 10.769531 -2.789062 11.222656 -3.390625 11.484375 -4.140625 L 13.890625 -4.140625 C 13.523438 -2.847656 12.800781 -1.796875 11.71875 -0.984375 C 10.644531 -0.179688 9.304688 0.21875 7.703125 0.21875 C 6.429688 0.21875 5.289062 -0.0664062 4.28125 -0.640625 C 3.269531 -1.210938 2.476562 -2.023438 1.90625 -3.078125 C 1.34375 -4.128906 1.0625 -5.351562 1.0625 -6.75 C 1.0625 -8.132812 1.335938 -9.347656 1.890625 -10.390625 C 2.441406 -11.441406 3.21875 -12.25 4.21875 -12.8125 C 5.226562 -13.375 6.390625 -13.65625 7.703125 -13.65625 C 8.972656 -13.65625 10.097656 -13.378906 11.078125 -12.828125 C 12.066406 -12.273438 12.828125 -11.507812 13.359375 -10.53125 C 13.890625 -9.5625 14.15625 -8.460938 14.15625 -7.234375 Z M 11.84375 -7.703125 C 11.84375 -8.554688 11.65625 -9.285156 11.28125 -9.890625 C 10.90625 -10.503906 10.394531 -10.972656 9.75 -11.296875 C 9.101562 -11.617188 8.390625 -11.78125 7.609375 -11.78125 C 6.472656 -11.78125 5.507812 -11.414062 4.71875 -10.6875 C 3.925781 -9.96875 3.472656 -8.972656 3.359375 -7.703125 Z M 11.84375 -7.703125 "/></g></g></g><g fill="#00ffff" fill-opacity="1"><g transform="translate(42.488987, 23.961002)"><g><path d="M 13.328125 -12.09375 C 13.328125 -10.664062 12.835938 -9.484375 11.859375 -8.546875 C 10.890625 -7.609375 9.40625 -7.140625 7.40625 -7.140625 L 4.125 -7.140625 L 4.125 0 L 1.890625 0 L 1.890625 -17.09375 L 7.40625 -17.09375 C 9.332031 -17.09375 10.800781 -16.625 11.8125 -15.6875 C 12.820312 -14.757812 13.328125 -13.5625 13.328125 -12.09375 Z M 7.40625 -8.984375 C 8.644531 -8.984375 9.5625 -9.25 10.15625 -9.78125 C 10.75 -10.320312 11.046875 -11.09375 11.046875 -12.09375 C 11.046875 -14.207031 9.832031 -15.265625 7.40625 -15.265625 L 4.125 -15.265625 L 4.125 -8.984375 Z M 7.40625 -8.984375 "/></g></g></g><g fill="#00ffff" fill-opacity="1"><g transform="translate(56.690618, 23.961002)"><g><path d="M 3.046875 -15.625 C 2.617188 -15.625 2.253906 -15.769531 1.953125 -16.0625 C 1.660156 -16.363281 1.515625 -16.722656 1.515625 -17.140625 C 1.515625 -17.566406 1.660156 -17.925781 1.953125 -18.21875 C 2.253906 -18.519531 2.617188 -18.671875 3.046875 -18.671875 C 3.453125 -18.671875 3.796875 -18.519531 4.078125 -18.21875 C 4.367188 -17.925781 4.515625 -17.566406 4.515625 -17.140625 C 4.515625 -16.722656 4.367188 -16.363281 4.078125 -16.0625 C 3.796875 -15.769531 3.453125 -15.625 3.046875 -15.625 Z M 4.125 -13.4375 L 4.125 0 L 1.890625 0 L 1.890625 -13.4375 Z M 4.125 -13.4375 "/></g></g></g><g fill="#00ffff" fill-opacity="1"><g transform="translate(62.724476, 23.961002)"><g><path d="M 8.90625 0 L 5.71875 -5 L 2.65625 0 L 0.3125 0 L 4.65625 -6.671875 L 0.3125 -13.4375 L 2.84375 -13.4375 L 6.03125 -8.46875 L 9.078125 -13.4375 L 11.40625 -13.4375 L 7.09375 -6.796875 L 11.4375 0 Z M 8.90625 0 "/></g></g></g><g fill="#00ffff" fill-opacity="1"><g transform="translate(74.473321, 23.961002)"><g><path d="M 14.15625 -7.234375 C 14.15625 -6.804688 14.128906 -6.359375 14.078125 -5.890625 L 3.34375 -5.890625 C 3.414062 -4.566406 3.863281 -3.53125 4.6875 -2.78125 C 5.519531 -2.039062 6.523438 -1.671875 7.703125 -1.671875 C 8.671875 -1.671875 9.476562 -1.894531 10.125 -2.34375 C 10.769531 -2.789062 11.222656 -3.390625 11.484375 -4.140625 L 13.890625 -4.140625 C 13.523438 -2.847656 12.800781 -1.796875 11.71875 -0.984375 C 10.644531 -0.179688 9.304688 0.21875 7.703125 0.21875 C 6.429688 0.21875 5.289062 -0.0664062 4.28125 -0.640625 C 3.269531 -1.210938 2.476562 -2.023438 1.90625 -3.078125 C 1.34375 -4.128906 1.0625 -5.351562 1.0625 -6.75 C 1.0625 -8.132812 1.335938 -9.347656 1.890625 -10.390625 C 2.441406 -11.441406 3.21875 -12.25 4.21875 -12.8125 C 5.226562 -13.375 6.390625 -13.65625 7.703125 -13.65625 C 8.972656 -13.65625 10.097656 -13.378906 11.078125 -12.828125 C 12.066406 -12.273438 12.828125 -11.507812 13.359375 -10.53125 C 13.890625 -9.5625 14.15625 -8.460938 14.15625 -7.234375 Z M 11.84375 -7.703125 C 11.84375 -8.554688 11.65625 -9.285156 11.28125 -9.890625 C 10.90625 -10.503906 10.394531 -10.972656 9.75 -11.296875 C 9.101562 -11.617188 8.390625 -11.78125 7.609375 -11.78125 C 6.472656 -11.78125 5.507812 -11.414062 4.71875 -10.6875 C 3.925781 -9.96875 3.472656 -8.972656 3.359375 -7.703125 Z M 11.84375 -7.703125 "/></g></g></g><g fill="#00ffff" fill-opacity="1"><g transform="translate(89.680597, 23.961002)"><g><path d="M 4.125 -18.15625 L 4.125 0 L 1.890625 0 L 1.890625 -18.15625 Z M 4.125 -18.15625 "/></g></g></g><g fill="#00ffff" fill-opacity="1"><g transform="translate(95.714454, 23.961002)"><g><path d="M 3.046875 -15.625 C 2.617188 -15.625 2.253906 -15.769531 1.953125 -16.0625 C 1.660156 -16.363281 1.515625 -16.722656 1.515625 -17.140625 C 1.515625 -17.566406 1.660156 -17.925781 1.953125 -18.21875 C 2.253906 -18.519531 2.617188 -18.671875 3.046875 -18.671875 C 3.453125 -18.671875 3.796875 -18.519531 4.078125 -18.21875 C 4.367188 -17.925781 4.515625 -17.566406 4.515625 -17.140625 C 4.515625 -16.722656 4.367188 -16.363281 4.078125 -16.0625 C 3.796875 -15.769531 3.453125 -15.625 3.046875 -15.625 Z M 4.125 -13.4375 L 4.125 0 L 1.890625 0 L 1.890625 -13.4375 Z M 4.125 -13.4375 "/></g></g></g><g fill="#00ffff" fill-opacity="1"><g transform="translate(101.748312, 23.961002)"><g><path d="M 3.5625 -1.84375 L 10.15625 -1.84375 L 10.15625 0 L 1 0 L 1 -1.84375 L 7.53125 -11.625 L 1.0625 -11.625 L 1.0625 -13.4375 L 10.109375 -13.4375 L 10.109375 -11.625 Z M 3.5625 -1.84375 "/></g></g></g><g fill="#00ffff" fill-opacity="1"><g transform="translate(112.908491, 23.961002)"><g><path d="M 14.15625 -7.234375 C 14.15625 -6.804688 14.128906 -6.359375 14.078125 -5.890625 L 3.34375 -5.890625 C 3.414062 -4.566406 3.863281 -3.53125 4.6875 -2.78125 C 5.519531 -2.039062 6.523438 -1.671875 7.703125 -1.671875 C 8.671875 -1.671875 9.476562 -1.894531 10.125 -2.34375 C 10.769531 -2.789062 11.222656 -3.390625 11.484375 -4.140625 L 13.890625 -4.140625 C 13.523438 -2.847656 12.800781 -1.796875 11.71875 -0.984375 C 10.644531 -0.179688 9.304688 0.21875 7.703125 0.21875 C 6.429688 0.21875 5.289062 -0.0664062 4.28125 -0.640625 C 3.269531 -1.210938 2.476562 -2.023438 1.90625 -3.078125 C 1.34375 -4.128906 1.0625 -5.351562 1.0625 -6.75 C 1.0625 -8.132812 1.335938 -9.347656 1.890625 -10.390625 C 2.441406 -11.441406 3.21875 -12.25 4.21875 -12.8125 C 5.226562 -13.375 6.390625 -13.65625 7.703125 -13.65625 C 8.972656 -13.65625 10.097656 -13.378906 11.078125 -12.828125 C 12.066406 -12.273438 12.828125 -11.507812 13.359375 -10.53125 C 13.890625 -9.5625 14.15625 -8.460938 14.15625 -7.234375 Z M 11.84375 -7.703125 C 11.84375 -8.554688 11.65625 -9.285156 11.28125 -9.890625 C 10.90625 -10.503906 10.394531 -10.972656 9.75 -11.296875 C 9.101562 -11.617188 8.390625 -11.78125 7.609375 -11.78125 C 6.472656 -11.78125 5.507812 -11.414062 4.71875 -10.6875 C 3.925781 -9.96875 3.472656 -8.972656 3.359375 -7.703125 Z M 11.84375 -7.703125 "/></g></g></g><g fill="#8c52ff" fill-opacity="1"><g transform="translate(41.875641, 22.898658)"><g><path d="M 13.328125 -12.09375 C 13.328125 -10.664062 12.835938 -9.484375 11.859375 -8.546875 C 10.890625 -7.609375 9.40625 -7.140625 7.40625 -7.140625 L 4.125 -7.140625 L 4.125 0 L 1.890625 0 L 1.890625 -17.09375 L 7.40625 -17.09375 C 9.332031 -17.09375 10.800781 -16.625 11.8125 -15.6875 C 12.820312 -14.757812 13.328125 -13.5625 13.328125 -12.09375 Z M 7.40625 -8.984375 C 8.644531 -8.984375 9.5625 -9.25 10.15625 -9.78125 C 10.75 -10.320312 11.046875 -11.09375 11.046875 -12.09375 C 11.046875 -14.207031 9.832031 -15.265625 7.40625 -15.265625 L 4.125 -15.265625 L 4.125 -8.984375 Z M 7.40625 -8.984375 "/></g></g></g><g fill="#8c52ff" fill-opacity="1"><g transform="translate(56.077273, 22.898658)"><g><path d="M 3.046875 -15.625 C 2.617188 -15.625 2.253906 -15.769531 1.953125 -16.0625 C 1.660156 -16.363281 1.515625 -16.722656 1.515625 -17.140625 C 1.515625 -17.566406 1.660156 -17.925781 1.953125 -18.21875 C 2.253906 -18.519531 2.617188 -18.671875 3.046875 -18.671875 C 3.453125 -18.671875 3.796875 -18.519531 4.078125 -18.21875 C 4.367188 -17.925781 4.515625 -17.566406 4.515625 -17.140625 C 4.515625 -16.722656 4.367188 -16.363281 4.078125 -16.0625 C 3.796875 -15.769531 3.453125 -15.625 3.046875 -15.625 Z M 4.125 -13.4375 L 4.125 0 L 1.890625 0 L 1.890625 -13.4375 Z M 4.125 -13.4375 "/></g></g></g><g fill="#8c52ff" fill-opacity="1"><g transform="translate(62.11113, 22.898658)"><g><path d="M 8.90625 0 L 5.71875 -5 L 2.65625 0 L 0.3125 0 L 4.65625 -6.671875 L 0.3125 -13.4375 L 2.84375 -13.4375 L 6.03125 -8.46875 L 9.078125 -13.4375 L 11.40625 -13.4375 L 7.09375 -6.796875 L 11.4375 0 Z M 8.90625 0 "/></g></g></g><g fill="#8c52ff" fill-opacity="1"><g transform="translate(73.859976, 22.898658)"><g><path d="M 14.15625 -7.234375 C 14.15625 -6.804688 14.128906 -6.359375 14.078125 -5.890625 L 3.34375 -5.890625 C 3.414062 -4.566406 3.863281 -3.53125 4.6875 -2.78125 C 5.519531 -2.039062 6.523438 -1.671875 7.703125 -1.671875 C 8.671875 -1.671875 9.476562 -1.894531 10.125 -2.34375 C 10.769531 -2.789062 11.222656 -3.390625 11.484375 -4.140625 L 13.890625 -4.140625 C 13.523438 -2.847656 12.800781 -1.796875 11.71875 -0.984375 C 10.644531 -0.179688 9.304688 0.21875 7.703125 0.21875 C 6.429688 0.21875 5.289062 -0.0664062 4.28125 -0.640625 C 3.269531 -1.210938 2.476562 -2.023438 1.90625 -3.078125 C 1.34375 -4.128906 1.0625 -5.351562 1.0625 -6.75 C 1.0625 -8.132812 1.335938 -9.347656 1.890625 -10.390625 C 2.441406 -11.441406 3.21875 -12.25 4.21875 -12.8125 C 5.226562 -13.375 6.390625 -13.65625 7.703125 -13.65625 C 8.972656 -13.65625 10.097656 -13.378906 11.078125 -12.828125 C 12.066406 -12.273438 12.828125 -11.507812 13.359375 -10.53125 C 13.890625 -9.5625 14.15625 -8.460938 14.15625 -7.234375 Z M 11.84375 -7.703125 C 11.84375 -8.554688 11.65625 -9.285156 11.28125 -9.890625 C 10.90625 -10.503906 10.394531 -10.972656 9.75 -11.296875 C 9.101562 -11.617188 8.390625 -11.78125 7.609375 -11.78125 C 6.472656 -11.78125 5.507812 -11.414062 4.71875 -10.6875 C 3.925781 -9.96875 3.472656 -8.972656 3.359375 -7.703125 Z M 11.84375 -7.703125 "/></g></g></g><g fill="#8c52ff" fill-opacity="1"><g transform="translate(89.067251, 22.898658)"><g><path d="M 4.125 -18.15625 L 4.125 0 L 1.890625 0 L 1.890625 -18.15625 Z M 4.125 -18.15625 "/></g></g></g><g fill="#8c52ff" fill-opacity="1"><g transform="translate(95.101109, 22.898658)"><g><path d="M 3.046875 -15.625 C 2.617188 -15.625 2.253906 -15.769531 1.953125 -16.0625 C 1.660156 -16.363281 1.515625 -16.722656 1.515625 -17.140625 C 1.515625 -17.566406 1.660156 -17.925781 1.953125 -18.21875 C 2.253906 -18.519531 2.617188 -18.671875 3.046875 -18.671875 C 3.453125 -18.671875 3.796875 -18.519531 4.078125 -18.21875 C 4.367188 -17.925781 4.515625 -17.566406 4.515625 -17.140625 C 4.515625 -16.722656 4.367188 -16.363281 4.078125 -16.0625 C 3.796875 -15.769531 3.453125 -15.625 3.046875 -15.625 Z M 4.125 -13.4375 L 4.125 0 L 1.890625 0 L 1.890625 -13.4375 Z M 4.125 -13.4375 "/></g></g></g><g fill="#8c52ff" fill-opacity="1"><g transform="translate(101.134966, 22.898658)"><g><path d="M 3.5625 -1.84375 L 10.15625 -1.84375 L 10.15625 0 L 1 0 L 1 -1.84375 L 7.53125 -11.625 L 1.0625 -11.625 L 1.0625 -13.4375 L 10.109375 -13.4375 L 10.109375 -11.625 Z M 3.5625 -1.84375 "/></g></g></g><g fill="#8c52ff" fill-opacity="1"><g transform="translate(112.295145, 22.898658)"><g><path d="M 14.15625 -7.234375 C 14.15625 -6.804688 14.128906 -6.359375 14.078125 -5.890625 L 3.34375 -5.890625 C 3.414062 -4.566406 3.863281 -3.53125 4.6875 -2.78125 C 5.519531 -2.039062 6.523438 -1.671875 7.703125 -1.671875 C 8.671875 -1.671875 9.476562 -1.894531 10.125 -2.34375 C 10.769531 -2.789062 11.222656 -3.390625 11.484375 -4.140625 L 13.890625 -4.140625 C 13.523438 -2.847656 12.800781 -1.796875 11.71875 -0.984375 C 10.644531 -0.179688 9.304688 0.21875 7.703125 0.21875 C 6.429688 0.21875 5.289062 -0.0664062 4.28125 -0.640625 C 3.269531 -1.210938 2.476562 -2.023438 1.90625 -3.078125 C 1.34375 -4.128906 1.0625 -5.351562 1.0625 -6.75 C 1.0625 -8.132812 1.335938 -9.347656 1.890625 -10.390625 C 2.441406 -11.441406 3.21875 -12.25 4.21875 -12.8125 C 5.226562 -13.375 6.390625 -13.65625 7.703125 -13.65625 C 8.972656 -13.65625 10.097656 -13.378906 11.078125 -12.828125 C 12.066406 -12.273438 12.828125 -11.507812 13.359375 -10.53125 C 13.890625 -9.5625 14.15625 -8.460938 14.15625 -7.234375 Z M 11.84375 -7.703125 C 11.84375 -8.554688 11.65625 -9.285156 11.28125 -9.890625 C 10.90625 -10.503906 10.394531 -10.972656 9.75 -11.296875 C 9.101562 -11.617188 8.390625 -11.78125 7.609375 -11.78125 C 6.472656 -11.78125 5.507812 -11.414062 4.71875 -10.6875 C 3.925781 -9.96875 3.472656 -8.972656 3.359375 -7.703125 Z M 11.84375 -7.703125 "/></g></g></g><path fill="#8c52ff" d="M 11.574219 14.109375 C 12.277344 13.273438 13.042969 12.4375 13.867188 11.613281 C 20.015625 5.464844 26.96875 2.441406 29.390625 4.867188 C 30.046875 5.519531 30.300781 6.503906 30.210938 7.710938 C 30.824219 5.515625 30.6875 3.726562 29.648438 2.6875 C 26.960938 0 19.25 3.351562 12.425781 10.175781 C 11.675781 10.925781 10.96875 11.683594 10.304688 12.449219 C 10.699219 13.003906 11.125 13.558594 11.574219 14.109375 " fill-opacity="1" fill-rule="nonzero"/><path fill="#5e17eb" d="M 9.210938 4.867188 C 10.605469 3.472656 13.496094 3.878906 16.871094 5.648438 C 17.519531 5.171875 18.167969 4.726562 18.804688 4.316406 C 14.492188 1.730469 10.683594 0.957031 8.953125 2.6875 C 7.914062 3.726562 7.777344 5.515625 8.390625 7.710938 C 8.296875 6.503906 8.554688 5.519531 9.210938 4.867188 " fill-opacity="1" fill-rule="nonzero"/><path fill="#5e17eb" d="M 26.175781 10.175781 C 24.699219 8.699219 23.183594 7.386719 21.683594 6.261719 C 21.058594 6.601562 20.414062 6.992188 19.765625 7.417969 C 21.414062 8.570312 23.101562 9.980469 24.734375 11.613281 C 30.886719 17.765625 33.90625 24.714844 31.484375 27.140625 C 30.828125 27.792969 29.847656 28.050781 28.636719 27.957031 C 30.835938 28.574219 32.625 28.4375 33.660156 27.398438 C 36.351562 24.710938 33 16.996094 26.175781 10.175781 " fill-opacity="1" fill-rule="nonzero"/><path fill="#8c52ff" d="M 31.484375 1.890625 C 33.257812 3.664062 32.113281 7.875 28.949219 12.414062 C 29.421875 12.96875 29.871094 13.523438 30.296875 14.082031 C 34.21875 8.753906 35.734375 3.703125 33.660156 1.632812 C 32.625 0.59375 30.835938 0.457031 28.636719 1.070312 C 29.847656 0.980469 30.828125 1.234375 31.484375 1.890625 " fill-opacity="1" fill-rule="nonzero"/><path fill="#8c52ff" d="M 7.117188 27.140625 C 5.34375 25.363281 6.488281 21.15625 9.652344 16.613281 C 9.179688 16.0625 8.730469 15.503906 8.304688 14.945312 C 4.382812 20.277344 2.867188 25.328125 4.941406 27.398438 C 5.976562 28.4375 7.765625 28.574219 9.964844 27.957031 C 8.753906 28.050781 7.773438 27.792969 7.117188 27.140625 " fill-opacity="1" fill-rule="nonzero"/><path fill="#5e17eb" d="M 16.917969 22.769531 C 17.542969 22.425781 18.1875 22.039062 18.835938 21.609375 C 17.1875 20.460938 15.5 19.046875 13.867188 17.414062 C 7.714844 11.265625 4.695312 4.3125 7.117188 1.890625 C 7.773438 1.234375 8.753906 0.980469 9.964844 1.070312 C 7.765625 0.457031 5.976562 0.59375 4.941406 1.632812 C 2.25 4.320312 5.601562 12.03125 12.425781 18.855469 C 13.902344 20.332031 15.417969 21.644531 16.917969 22.769531 " fill-opacity="1" fill-rule="nonzero"/><path fill="#5e17eb" d="M 30.210938 21.316406 C 30.300781 22.527344 30.046875 23.507812 29.390625 24.164062 C 27.996094 25.558594 25.105469 25.148438 21.730469 23.382812 C 21.082031 23.859375 20.433594 24.304688 19.796875 24.714844 C 24.109375 27.300781 27.917969 28.070312 29.648438 26.339844 C 30.6875 25.304688 30.824219 23.515625 30.210938 21.316406 " fill-opacity="1" fill-rule="nonzero"/><path fill="#8c52ff" d="M 27.027344 14.921875 C 26.324219 15.757812 25.558594 16.59375 24.734375 17.414062 C 18.585938 23.566406 11.632812 26.585938 9.210938 24.164062 C 8.554688 23.507812 8.296875 22.527344 8.390625 21.316406 C 7.777344 23.515625 7.914062 25.304688 8.953125 26.339844 C 11.640625 29.03125 19.351562 25.679688 26.175781 18.855469 C 26.925781 18.105469 27.632812 17.34375 28.296875 16.582031 C 27.902344 16.027344 27.476562 15.472656 27.027344 14.921875 " fill-opacity="1" fill-rule="nonzero"/></svg>